<svg xmlns="http://www.w3.org/2000/svg" viewBox="0 0 220 160" role="img" aria-label="MoonBit subsidy illustration">
  <defs>
    <linearGradient id="coin" x1="38" y1="24" x2="171" y2="136" gradientUnits="userSpaceOnUse">
      <stop offset="0" stop-color="#ff4db8"/>
      <stop offset=".56" stop-color="#7457ff"/>
      <stop offset="1" stop-color="#47a7ff"/>
    </linearGradient>
    <linearGradient id="soft" x1="64" y1="28" x2="158" y2="142" gradientUnits="userSpaceOnUse">
      <stop offset="0" stop-color="#fff5ff"/>
      <stop offset="1" stop-color="#eef3ff"/>
    </linearGradient>
    <filter id="shadow" x="-20%" y="-20%" width="140%" height="145%">
      <feDropShadow dx="0" dy="12" stdDeviation="12" flood-color="#7457ff" flood-opacity=".2"/>
    </filter>
  </defs>
  <ellipse cx="116" cy="136" rx="72" ry="14" fill="#7457ff" opacity=".13"/>
  <path d="M82 48c8-18 17-23 27-23s19 5 27 23l26 56c9 20-5 38-27 38H83c-22 0-36-18-27-38z" fill="url(#soft)" stroke="#ff8bd1" stroke-width="2.4" filter="url(#shadow)"/>
  <path d="M82 48h54c-10 10-44 10-54 0z" fill="#fff" opacity=".72"/>
  <path d="M89 35c7-12 14-17 20-17s13 5 20 17c-14 9-26 9-40 0z" fill="url(#coin)"/>
  <circle cx="110" cy="93" r="32" fill="url(#coin)" opacity=".95"/>
  <path d="M110 70v46M95 84c5-7 28-9 31 4 3 14-25 10-28 22 7 7 25 5 31-3" fill="none" stroke="#fff" stroke-width="8" stroke-linecap="round" stroke-linejoin="round"/>
  <circle cx="54" cy="54" r="8" fill="#47a7ff" opacity=".45"/>
  <circle cx="174" cy="42" r="11" fill="#ff4db8" opacity=".32"/>
  <path d="M178 84l10 10 16-21" fill="none" stroke="#7457ff" stroke-width="8" stroke-linecap="round" stroke-linejoin="round" opacity=".42"/>
</svg>
